<svg xmlns="http://www.w3.org/2000/svg" version="1.1" xmlns:xlink="http://www.w3.org/1999/xlink" xmlns:svgjs="http://svgjs.dev/svgjs" width="128" height="128" viewBox="0 0 128 128"><g transform="matrix(0.8046875,0,0,0.8046875,12.760752631578946,16.438476033380688)"><svg viewBox="0 0 95 88" data-background-color="#ffffff" preserveAspectRatio="xMidYMid meet" height="118" width="128" xmlns="http://www.w3.org/2000/svg" xmlns:xlink="http://www.w3.org/1999/xlink"><g id="tight-bounds" transform="matrix(1,0,0,1,-0.24049999999999727,0.07873999999999626)"><svg viewBox="0 0 95.481 87.84252" height="87.84252" width="95.481"><g><svg viewBox="0 0 95.481 87.84252" height="87.84252" width="95.481"><g><svg viewBox="0 0 95.481 87.84252" height="87.84252" width="95.481"><g id="textblocktransform"><svg viewBox="0 0 95.481 87.84252" height="87.84252" width="95.481" id="textblock"><g><svg viewBox="0 0 95.481 87.84252" height="87.84252" width="95.481"><g><svg viewBox="0 0 95.481 87.84252" height="87.84252" width="95.481"><g><svg xmlns="http://www.w3.org/2000/svg" xmlns:xlink="http://www.w3.org/1999/xlink" version="1.1" x="0" y="0" viewBox="0 4 100 92" enable-background="new 0 0 100 100" xml:space="preserve" height="87.84252" width="95.481" class="icon-icon-0" data-fill-palette-color="accent" id="icon-0"><polygon points="97,30 3,30 5,32.358 5,38.019 95,38.019 95,32.358 " fill="#c40a3c" data-fill-palette-color="accent"></polygon><rect x="1" y="4" width="98" height="5" fill="#c40a3c" data-fill-palette-color="accent"></rect><path d="M95 59V40h-0.5c0 0 0 2.421-1.5 1.632 0 0-0.939 2.368-2 2.368h2l-0.5 2h-4L88 44h2c-1.061 0-2-2.368-2-2.368C86.5 42.421 86.5 40 86.5 40h-14c0 0 0 2.421-1.5 1.632 0 0-0.939 2.368-2 2.368h2l-0.5 2h-4L66 44h2c-1.061 0-2-2.368-2-2.368C64.5 42.421 64.5 40 64.5 40h-29c0 0 0 2.421-1.5 1.632 0 0-0.939 2.368-2 2.368h2l-0.5 2h-4L29 44h2c-1.061 0-2-2.368-2-2.368C27.5 42.421 27.5 40 27.5 40H13.543c0 0-0.021 2.421-1.521 1.632 0 0-0.961 2.368-2.021 2.368h2l-0.5 2h-4L7 44h2c-1.061 0-2-2.368-2-2.368C5.5 42.421 5.5 40 5.5 40H5v19H4v3h1v34h9V76.79v-3.211c0-3.332 3.166-6.044 6.5-6.044 3.335 0 6.5 2.712 6.5 6.044v3.211V96h9V62h2v-3h-2c0.16-7 6.613-13.286 14.013-13.286C57.416 45.714 63.843 52 64 59h-2v3h2v34h9V76.79v-3.211c0-3.332 3.164-6.044 6.5-6.044 3.334 0 6.5 2.712 6.5 6.044v3.211V96h9V62h1v-3H95zM7.5 47h4L12 87H7L7.5 47zM13 94H6v-6h7V94zM27 56H14v-9h13V56zM29.5 47h4L34 87h-5L29.5 47zM35 94h-7v-6h7V94zM66.5 47h4L71 87h-5L66.5 47zM72 94h-7v-6h7V94zM86 56H73v-9h13V56zM88.5 47h4L93 87h-5L88.5 47zM94 94h-7v-6h7V94z" fill="#c40a3c" data-fill-palette-color="accent"></path><path d="M93.939 26.057V12.959L97 13l1-2H1l2 2h3.262v13.057H0L2 28h34.246l0.535-1.943h26.375L63.689 28H98l2-1.943H93.939zM13.648 22v-9h12.941v9H13.648zM69.066 22h-38v-7h38V22zM73.069 22v-9h13.294v9H73.069z" fill="#c40a3c" data-fill-palette-color="accent"></path></svg></g></svg></g></svg></g></svg></g></svg></g></svg></g><defs></defs></svg><rect width="95.481" height="87.84252" fill="none" stroke="none" visibility="hidden"></rect></g></svg></g></svg>