<svg xmlns="http://www.w3.org/2000/svg" version="1.1" width="2000" height="207" viewBox="0 0 2000 207">
    <g transform="matrix(1,0,0,1,-1.2121212121213603,-0.6701675474962911)">
        <svg xmlns="http://www.w3.org/2000/svg"
             viewBox="0 0 396 41" data-background-color="#ffffff" preserveAspectRatio="xMidYMid meet" height="207"
             width="2000">
            <g id="tight-bounds" transform="matrix(1,0,0,1,0.24000000000003752,0.132738499745642)">
                <svg viewBox="0 0 395.5199999999999 40.734523000508744" height="40.734523000508744"
                     width="395.5199999999999">
                    <g>
                        <svg viewBox="0 0 454.3795809794303 46.79645907253269" height="40.734523000508744"
                             width="395.5199999999999">
                            <g transform="matrix(1,0,0,1,58.85958097943028,6.467527990487515)">
                                <svg viewBox="0 0 395.52 33.86140309155766" height="33.86140309155766" width="395.52">
                                    <g id="textblocktransform">
                                        <svg viewBox="0 0 395.52 33.86140309155766" height="33.86140309155766"
                                             width="395.52" id="textblock">
                                            <g>
                                                <svg viewBox="0 0 395.52 33.86140309155766" height="33.86140309155766"
                                                     width="395.52">
                                                    <g transform="matrix(1,0,0,1,0,0)">
                                                        <svg width="395.52" viewBox="-0.25 -35.5 420.4700012207031 36"
                                                             height="33.86140309155766" data-palette-color="#c40a3c">
                                                            <path d="M30.9 0L27.4-8.1 9.9-8.1 6.45 0-0.25 0 15.5-35 21.9-35 37.7 0 30.9 0ZM12.1-13.2L25.25-13.2 18.65-28.5 12.1-13.2ZM72.05 0L65.05 0 57.9-10.25Q57.45-10.2 56.55-10.2L56.55-10.2 48.65-10.2 48.65 0 42.15 0 42.15-35 56.55-35Q61.1-35 64.47-33.5 67.85-32 69.65-29.2 71.45-26.4 71.45-22.55L71.45-22.55Q71.45-18.6 69.52-15.75 67.6-12.9 64-11.5L64-11.5 72.05 0ZM64.9-22.55Q64.9-25.9 62.7-27.7 60.5-29.5 56.25-29.5L56.25-29.5 48.65-29.5 48.65-15.55 56.25-15.55Q60.5-15.55 62.7-17.38 64.9-19.2 64.9-22.55L64.9-22.55ZM94.9 0.5Q89.59 0.5 85.32-1.83 81.05-4.15 78.62-8.25 76.2-12.35 76.2-17.5L76.2-17.5Q76.2-22.65 78.65-26.75 81.09-30.85 85.37-33.18 89.65-35.5 94.95-35.5L94.95-35.5Q99.25-35.5 102.8-34 106.34-32.5 108.8-29.65L108.8-29.65 104.59-25.7Q100.8-29.8 95.25-29.8L95.25-29.8Q91.65-29.8 88.8-28.23 85.95-26.65 84.34-23.85 82.75-21.05 82.75-17.5L82.75-17.5Q82.75-13.95 84.34-11.15 85.95-8.35 88.8-6.78 91.65-5.2 95.25-5.2L95.25-5.2Q100.8-5.2 104.59-9.35L104.59-9.35 108.8-5.35Q106.34-2.5 102.77-1 99.2 0.5 94.9 0.5L94.9 0.5ZM139.64-35L146.14-35 146.14 0 139.64 0 139.64-15 121.54-15 121.54 0 115.04 0 115.04-35 121.54-35 121.54-20.55 139.64-20.55 139.64-35ZM155.54 0L155.54-35 170.84-35Q176.44-35 180.79-32.83 185.14-30.65 187.54-26.68 189.94-22.7 189.94-17.5L189.94-17.5Q189.94-12.3 187.54-8.33 185.14-4.35 180.79-2.18 176.44 0 170.84 0L170.84 0 155.54 0ZM162.04-5.5L170.54-5.5Q174.39-5.5 177.31-6.98 180.24-8.45 181.81-11.18 183.39-13.9 183.39-17.5L183.39-17.5Q183.39-21.1 181.81-23.83 180.24-26.55 177.31-28.03 174.39-29.5 170.54-29.5L170.54-29.5 162.04-29.5 162.04-5.5ZM203.34-5.45L223.09-5.45 223.09 0 196.84 0 196.84-35 222.39-35 222.39-29.55 203.34-29.55 203.34-20.45 220.24-20.45 220.24-15.1 203.34-15.1 203.34-5.45ZM241.19 0.5Q237.14 0.5 233.36-0.65 229.59-1.8 227.39-3.7L227.39-3.7 229.64-8.75Q231.79-7.05 234.91-5.98 238.04-4.9 241.19-4.9L241.19-4.9Q245.09-4.9 247.01-6.15 248.94-7.4 248.94-9.45L248.94-9.45Q248.94-10.95 247.86-11.93 246.79-12.9 245.14-13.45 243.49-14 240.64-14.7L240.64-14.7Q236.64-15.65 234.16-16.6 231.69-17.55 229.91-19.58 228.14-21.6 228.14-25.05L228.14-25.05Q228.14-27.95 229.71-30.33 231.29-32.7 234.46-34.1 237.64-35.5 242.24-35.5L242.24-35.5Q245.44-35.5 248.54-34.7 251.64-33.9 253.89-32.4L253.89-32.4 251.84-27.35Q249.54-28.7 247.04-29.4 244.54-30.1 242.19-30.1L242.19-30.1Q238.34-30.1 236.46-28.8 234.59-27.5 234.59-25.35L234.59-25.35Q234.59-23.85 235.66-22.9 236.74-21.95 238.39-21.4 240.04-20.85 242.89-20.15L242.89-20.15Q246.79-19.25 249.29-18.28 251.79-17.3 253.56-15.3 255.34-13.3 255.34-9.9L255.34-9.9Q255.34-7 253.76-4.65 252.19-2.3 248.99-0.9 245.79 0.5 241.19 0.5L241.19 0.5ZM261.78 0L261.78-35 268.28-35 268.28 0 261.78 0ZM301.63-7L301.63-17.9 307.78-17.9 307.78-3.95Q305.08-1.8 301.48-0.65 297.88 0.5 294.08 0.5L294.08 0.5Q288.73 0.5 284.43-1.83 280.13-4.15 277.68-8.25 275.23-12.35 275.23-17.5L275.23-17.5Q275.23-22.65 277.68-26.75 280.13-30.85 284.46-33.18 288.78-35.5 294.18-35.5L294.18-35.5Q298.58-35.5 302.18-34.05 305.78-32.6 308.23-29.8L308.23-29.8 304.13-25.8Q300.13-29.8 294.48-29.8L294.48-29.8Q290.78-29.8 287.91-28.25 285.03-26.7 283.41-23.9 281.78-21.1 281.78-17.5L281.78-17.5Q281.78-14 283.41-11.2 285.03-8.4 287.91-6.8 290.78-5.2 294.43-5.2L294.43-5.2Q298.53-5.2 301.63-7L301.63-7ZM340.98-35L347.43-35 347.43 0 342.08 0 322.78-23.7 322.78 0 316.33 0 316.33-35 321.68-35 340.98-11.3 340.98-35ZM363.33-5.45L383.08-5.45 383.08 0 356.83 0 356.83-35 382.38-35 382.38-29.55 363.33-29.55 363.33-20.45 380.23-20.45 380.23-15.1 363.33-15.1 363.33-5.45ZM420.22 0L413.22 0 406.07-10.25Q405.62-10.2 404.72-10.2L404.72-10.2 396.82-10.2 396.82 0 390.32 0 390.32-35 404.72-35Q409.27-35 412.65-33.5 416.02-32 417.82-29.2 419.62-26.4 419.62-22.55L419.62-22.55Q419.62-18.6 417.7-15.75 415.77-12.9 412.17-11.5L412.17-11.5 420.22 0ZM413.07-22.55Q413.07-25.9 410.87-27.7 408.67-29.5 404.42-29.5L404.42-29.5 396.82-29.5 396.82-15.55 404.42-15.55Q408.67-15.55 410.87-17.38 413.07-19.2 413.07-22.55L413.07-22.55Z"
                                                                  opacity="1" transform="matrix(1,0,0,1,0,0)"
                                                                  fill="#ffffff" class="undefined-text-0"
                                                                  data-fill-palette-color="primary" id="text-0"/>
                                                        </svg>
                                                    </g>
                                                </svg>
                                            </g>
                                        </svg>
                                    </g>
                                </svg>
                            </g>
                            <g>
                                <svg viewBox="0 0 50.86571638318771 46.79645907253269" height="46.79645907253269"
                                     width="50.86571638318771">
                                    <g>
                                        <svg xmlns="http://www.w3.org/2000/svg" version="1.1" x="0" y="0"
                                             viewBox="0 4 100 92" enable-background="new 0 0 100 100"
                                             xml:space="preserve" height="46.79645907253269" width="50.86571638318771"
                                             class="icon-icon-0" data-fill-palette-color="accent" id="icon-0"><polygon points="97,30 3,30 5,32.358 5,38.019 95,38.019 95,32.358 " fill="#ffffff" data-fill-palette-color="accent"/>
                                            <rect x="1" y="4" width="98" height="5" fill="#ffffff"
                                                  data-fill-palette-color="accent"/>
                                            <path d="M95 59V40h-0.5c0 0 0 2.421-1.5 1.632 0 0-0.939 2.368-2 2.368h2l-0.5 2h-4L88 44h2c-1.061 0-2-2.368-2-2.368C86.5 42.421 86.5 40 86.5 40h-14c0 0 0 2.421-1.5 1.632 0 0-0.939 2.368-2 2.368h2l-0.5 2h-4L66 44h2c-1.061 0-2-2.368-2-2.368C64.5 42.421 64.5 40 64.5 40h-29c0 0 0 2.421-1.5 1.632 0 0-0.939 2.368-2 2.368h2l-0.5 2h-4L29 44h2c-1.061 0-2-2.368-2-2.368C27.5 42.421 27.5 40 27.5 40H13.543c0 0-0.021 2.421-1.521 1.632 0 0-0.961 2.368-2.021 2.368h2l-0.5 2h-4L7 44h2c-1.061 0-2-2.368-2-2.368C5.5 42.421 5.5 40 5.5 40H5v19H4v3h1v34h9V76.79v-3.211c0-3.332 3.166-6.044 6.5-6.044 3.335 0 6.5 2.712 6.5 6.044v3.211V96h9V62h2v-3h-2c0.16-7 6.613-13.286 14.013-13.286C57.416 45.714 63.843 52 64 59h-2v3h2v34h9V76.79v-3.211c0-3.332 3.164-6.044 6.5-6.044 3.334 0 6.5 2.712 6.5 6.044v3.211V96h9V62h1v-3H95zM7.5 47h4L12 87H7L7.5 47zM13 94H6v-6h7V94zM27 56H14v-9h13V56zM29.5 47h4L34 87h-5L29.5 47zM35 94h-7v-6h7V94zM66.5 47h4L71 87h-5L66.5 47zM72 94h-7v-6h7V94zM86 56H73v-9h13V56zM88.5 47h4L93 87h-5L88.5 47zM94 94h-7v-6h7V94z"
                                                  fill="#ffffff" data-fill-palette-color="accent"/>
                                            <path d="M93.939 26.057V12.959L97 13l1-2H1l2 2h3.262v13.057H0L2 28h34.246l0.535-1.943h26.375L63.689 28H98l2-1.943H93.939zM13.648 22v-9h12.941v9H13.648zM69.066 22h-38v-7h38V22zM73.069 22v-9h13.294v9H73.069z"
                                                  fill="#ffffff" data-fill-palette-color="accent"/></svg>
                                    </g>
                                </svg>
                            </g>
                        </svg>
                    </g>
                    <defs/>
                </svg>
                <rect width="395.5199999999999" height="40.734523000508744" fill="none" stroke="none"
                      visibility="hidden"/>
            </g>
        </svg>
    </g>
</svg>